<?xml version="1.0" encoding="UTF-8" standalone="no"?>
<svg width="800" height="450" viewBox="0 0 800 450" xmlns="http://www.w3.org/2000/svg">
  <rect width="800" height="450" fill="#f5f7fa"/>
  <g fill="#3a5cc9" stroke="#3a5cc9" stroke-width="2">
    <!-- Devices -->
    <circle cx="200" cy="150" r="30"/>
    <circle cx="400" cy="100" r="30"/>
    <circle cx="600" cy="150" r="30"/>
    <circle cx="150" cy="300" r="30"/>
    <circle cx="350" cy="350" r="30"/>
    <circle cx="550" cy="320" r="30"/>
    <circle cx="650" cy="250" r="30"/>
    <circle cx="300" cy="200" r="30"/>
    <circle cx="450" cy="230" r="30"/>
    
    <!-- Connection lines -->
    <line x1="200" y1="150" x2="300" y2="200" stroke-opacity="0.7"/>
    <line x1="400" y1="100" x2="300" y2="200" stroke-opacity="0.7"/>
    <line x1="400" y1="100" x2="600" y2="150" stroke-opacity="0.7"/>
    <line x1="300" y1="200" x2="450" y2="230" stroke-opacity="0.7"/>
    <line x1="300" y1="200" x2="150" y2="300" stroke-opacity="0.7"/>
    <line x1="450" y1="230" x2="550" y2="320" stroke-opacity="0.7"/>
    <line x1="450" y1="230" x2="350" y2="350" stroke-opacity="0.7"/>
    <line x1="450" y1="230" x2="650" y2="250" stroke-opacity="0.7"/>
    <line x1="600" y1="150" x2="650" y2="250" stroke-opacity="0.7"/>
    <line x1="550" y1="320" x2="650" y2="250" stroke-opacity="0.7"/>
    <line x1="550" y1="320" x2="350" y2="350" stroke-opacity="0.7"/>
  </g>
  
  <!-- Device Icons -->
  <g fill="white">
    <circle cx="200" cy="150" r="20"/>
    <circle cx="400" cy="100" r="20"/>
    <circle cx="600" cy="150" r="20"/>
    <circle cx="150" cy="300" r="20"/>
    <circle cx="350" cy="350" r="20"/>
    <circle cx="550" cy="320" r="20"/>
    <circle cx="650" cy="250" r="20"/>
    <circle cx="300" cy="200" r="20"/>
    <circle cx="450" cy="230" r="20"/>
  </g>
  
  <!-- Label -->
  <text x="400" y="430" text-anchor="middle" font-family="Arial" font-size="16" fill="#3a5cc9">
    Mesh Network Concept Visualization
  </text>
</svg>